<?xml version="1.0" standalone="no"?>
<!DOCTYPE svg PUBLIC "-//W3C//DTD SVG 1.1//EN"
"http://www.w3.org/Graphics/SVG/1.1/DTD/svg11.dtd">

<svg width="582" height="524" view_box="0 0 582 524"
xmlns="http://www.w3.org/2000/svg"
xmlns:link="http://www.w3.org/1999/xlink">\n\n<desc>Généré par Mocodo 2.3.7 le Tue, 12 Jul 2022 02:37:01</desc>

<rect id="frame" x="0" y="0" width="582" height="524" fill="#f7f7f7" stroke="none" stroke-width="0"/>

<!-- Association PLAY -->
<line x1="280" y1="77" x2="280" y2="195" stroke="#8073ac" stroke-width="2"/>
<text x="285.0" y="162" fill="#b35806" font-family="Verdana" font-size="12">0,N</text>
<line x1="280" y1="279" x2="280" y2="195" stroke="#8073ac" stroke-width="2"/>
<text x="285.0" y="237" fill="#b35806" font-family="Verdana" font-size="12">1,N</text>
<g id="association-PLAY">
	<path d="M 289 170 a 14 14 90 0 1 14 14 V 195 h -46 V 184 a 14 14 90 0 1 14 -14" fill="#b2abd2" stroke="#b2abd2" stroke-width="0"/>
	<path d="M 303 195.0 v 11 a 14 14 90 0 1 -14 14 H 271 a 14 14 90 0 1 -14 -14 V 195.0 H 46" fill="#d8daeb" stroke="#d8daeb" stroke-width="0"/>
	<rect x="257" y="170" width="46" height="50" fill="none" rx="14" stroke="#8073ac" stroke-width="2"/>
	<line x1="257" y1="195" x2="303" y2="195" stroke="#8073ac" stroke-width="1"/>
	<text x="264" y="187.7" fill="#000000" font-family="Verdana" font-size="12">PLAY</text>
</g>

<!-- Association DEFINE -->
<line x1="57" y1="464" x2="167" y2="464" stroke="#8073ac" stroke-width="2"/>
<text x="110" y="481.0" fill="#b35806" font-family="Verdana" font-size="12">0,N</text>
<line x1="280" y1="464" x2="167" y2="464" stroke="#8073ac" stroke-width="2"/>
<text x="202" y="481.0" fill="#b35806" font-family="Verdana" font-size="12">0,N</text>
<g id="association-DEFINE">
	<path d="M 183 439 a 14 14 90 0 1 14 14 V 464 h -60 V 453 a 14 14 90 0 1 14 -14" fill="#b2abd2" stroke="#b2abd2" stroke-width="0"/>
	<path d="M 197 464.0 v 11 a 14 14 90 0 1 -14 14 H 151 a 14 14 90 0 1 -14 -14 V 464.0 H 60" fill="#d8daeb" stroke="#d8daeb" stroke-width="0"/>
	<rect x="137" y="439" width="60" height="50" fill="none" rx="14" stroke="#8073ac" stroke-width="2"/>
	<line x1="137" y1="464" x2="197" y2="464" stroke="#8073ac" stroke-width="1"/>
	<text x="144" y="456.7" fill="#000000" font-family="Verdana" font-size="12">DEFINE</text>
	<text x="144" y="481.8" fill="#000000" font-family="Verdana" font-size="12">level</text>
</g>

<!-- Association USE -->
<line x1="532" y1="464" x2="532" y2="279" stroke="#8073ac" stroke-width="2"/>
<text x="537.0" y="422" fill="#b35806" font-family="Verdana" font-size="12">0,N</text>
<line x1="280" y1="279" x2="532" y2="279" stroke="#8073ac" stroke-width="2"/>
<text x="325" y="296.0" fill="#b35806" font-family="Verdana" font-size="12">1,1</text>
<g id="association-USE">
	<path d="M 538 254 a 14 14 90 0 1 14 14 V 279 h -40 V 268 a 14 14 90 0 1 14 -14" fill="#b2abd2" stroke="#b2abd2" stroke-width="0"/>
	<path d="M 552 279.0 v 11 a 14 14 90 0 1 -14 14 H 526 a 14 14 90 0 1 -14 -14 V 279.0 H 40" fill="#d8daeb" stroke="#d8daeb" stroke-width="0"/>
	<rect x="512" y="254" width="40" height="50" fill="none" rx="14" stroke="#8073ac" stroke-width="2"/>
	<line x1="512" y1="279" x2="552" y2="279" stroke="#8073ac" stroke-width="1"/>
	<text x="519" y="271.7" fill="#000000" font-family="Verdana" font-size="12">USE</text>
</g>

<!-- Association BELONGS TO -->
<line x1="280" y1="464" x2="411" y2="464" stroke="#8073ac" stroke-width="2"/>
<text x="336" y="481.0" fill="#b35806" font-family="Verdana" font-size="12">1,1</text>
<line x1="532" y1="464" x2="411" y2="464" stroke="#8073ac" stroke-width="2"/>
<text x="464" y="481.0" fill="#b35806" font-family="Verdana" font-size="12">0,N</text>
<g id="association-BELONGS TO">
	<path d="M 445 439 a 14 14 90 0 1 14 14 V 464 h -96 V 453 a 14 14 90 0 1 14 -14" fill="#b2abd2" stroke="#b2abd2" stroke-width="0"/>
	<path d="M 459 464.0 v 11 a 14 14 90 0 1 -14 14 H 377 a 14 14 90 0 1 -14 -14 V 464.0 H 96" fill="#d8daeb" stroke="#d8daeb" stroke-width="0"/>
	<rect x="363" y="439" width="96" height="50" fill="none" rx="14" stroke="#8073ac" stroke-width="2"/>
	<line x1="363" y1="464" x2="459" y2="464" stroke="#8073ac" stroke-width="1"/>
	<text x="370" y="456.7" fill="#000000" font-family="Verdana" font-size="12">BELONGS TO</text>
</g>

<!-- Association CONTAIN -->
<line x1="280" y1="279" x2="280" y2="363" stroke="#8073ac" stroke-width="2"/>
<text x="285.0" y="330" fill="#b35806" font-family="Verdana" font-size="12">1,N</text>
<line x1="280" y1="464" x2="280" y2="363" stroke="#8073ac" stroke-width="2"/>
<text x="285.0" y="405" fill="#b35806" font-family="Verdana" font-size="12">0,N</text>
<g id="association-CONTAIN">
	<path d="M 302 338 a 14 14 90 0 1 14 14 V 363 h -72 V 352 a 14 14 90 0 1 14 -14" fill="#b2abd2" stroke="#b2abd2" stroke-width="0"/>
	<path d="M 316 363.0 v 11 a 14 14 90 0 1 -14 14 H 258 a 14 14 90 0 1 -14 -14 V 363.0 H 72" fill="#d8daeb" stroke="#d8daeb" stroke-width="0"/>
	<rect x="244" y="338" width="72" height="50" fill="none" rx="14" stroke="#8073ac" stroke-width="2"/>
	<line x1="244" y1="363" x2="316" y2="363" stroke="#8073ac" stroke-width="1"/>
	<text x="251" y="355.7" fill="#000000" font-family="Verdana" font-size="12">CONTAIN</text>
</g>

<!-- Entity BATTLE -->
<g id="entity-BATTLE">
	<g id="frame-BATTLE">
		<rect x="240" y="245" width="80" height="25" fill="#fdb863" stroke="#fdb863" stroke-width="0"/>
		<rect x="240" y="270.0" width="80" height="43" fill="#fee0b6" stroke="#fee0b6" stroke-width="0"/>
		<rect x="240" y="245" width="80" height="68" fill="none" stroke="#e08214" stroke-width="2"/>
		<line x1="240" y1="270" x2="320" y2="270" stroke="#e08214" stroke-width="1"/>
	</g>
	<text x="256" y="262.7" fill="#000000" font-family="Verdana" font-size="12">BATTLE</text>
	<text x="245" y="287.8" fill="#000000" font-family="Verdana" font-size="12">battle_num</text>
	<line x1="245" y1="290" x2="315" y2="290" stroke="#000000" stroke-width="1"/>
	<text x="245" y="304.8" fill="#000000" font-family="Verdana" font-size="12">start_date</text>
</g>

<!-- Entity CHARACTER -->
<g id="entity-CHARACTER">
	<g id="frame-CHARACTER">
		<rect x="229" y="413" width="102" height="25" fill="#fdb863" stroke="#fdb863" stroke-width="0"/>
		<rect x="229" y="438.0" width="102" height="77" fill="#fee0b6" stroke="#fee0b6" stroke-width="0"/>
		<rect x="229" y="413" width="102" height="102" fill="none" stroke="#e08214" stroke-width="2"/>
		<line x1="229" y1="438" x2="331" y2="438" stroke="#e08214" stroke-width="1"/>
	</g>
	<text x="242" y="430.7" fill="#000000" font-family="Verdana" font-size="12">CHARACTER</text>
	<text x="234" y="455.7" fill="#000000" font-family="Verdana" font-size="12">character_num</text>
	<line x1="234" y1="458" x2="326" y2="458" stroke="#000000" stroke-width="1"/>
	<text x="234" y="472.8" fill="#000000" font-family="Verdana" font-size="12">name</text>
	<text x="234" y="489.8" fill="#000000" font-family="Verdana" font-size="12">picture</text>
	<text x="234" y="506.8" fill="#000000" font-family="Verdana" font-size="12">family</text>
</g>

<!-- Entity CAPACITY -->
<g id="entity-CAPACITY">
	<g id="frame-CAPACITY">
		<rect x="9" y="430" width="96" height="25" fill="#fdb863" stroke="#fdb863" stroke-width="0"/>
		<rect x="9" y="455.0" width="96" height="43" fill="#fee0b6" stroke="#fee0b6" stroke-width="0"/>
		<rect x="9" y="430" width="96" height="68" fill="none" stroke="#e08214" stroke-width="2"/>
		<line x1="9" y1="455" x2="105" y2="455" stroke="#e08214" stroke-width="1"/>
	</g>
	<text x="26" y="447.7" fill="#000000" font-family="Verdana" font-size="12">CAPACITY</text>
	<text x="14" y="472.8" fill="#000000" font-family="Verdana" font-size="12">capacity_num</text>
	<line x1="14" y1="475" x2="99" y2="475" stroke="#000000" stroke-width="1"/>
	<text x="14" y="489.8" fill="#000000" font-family="Verdana" font-size="12">name</text>
</g>

<!-- Entity USER -->
<g id="entity-USER">
	<g id="frame-USER">
		<rect x="227" y="9" width="106" height="25" fill="#fdb863" stroke="#fdb863" stroke-width="0"/>
		<rect x="227" y="34.0" width="106" height="111" fill="#fee0b6" stroke="#fee0b6" stroke-width="0"/>
		<rect x="227" y="9" width="106" height="136" fill="none" stroke="#e08214" stroke-width="2"/>
		<line x1="227" y1="34" x2="333" y2="34" stroke="#e08214" stroke-width="1"/>
	</g>
	<text x="263" y="26.7" fill="#000000" font-family="Verdana" font-size="12">USER</text>
	<text x="232" y="51.7" fill="#000000" font-family="Verdana" font-size="12">user_num</text>
	<line x1="232" y1="54" x2="294" y2="54" stroke="#000000" stroke-width="1"/>
	<text x="232" y="68.7" fill="#000000" font-family="Verdana" font-size="12">name</text>
	<text x="232" y="85.8" fill="#000000" font-family="Verdana" font-size="12">password</text>
	<text x="232" y="102.8" fill="#000000" font-family="Verdana" font-size="12">language</text>
	<text x="232" y="119.8" fill="#000000" font-family="Verdana" font-size="12">victory_number</text>
	<text x="232" y="136.8" fill="#000000" font-family="Verdana" font-size="12">role</text>
</g>

<!-- Entity FAMILY -->
<g id="entity-FAMILY">
	<g id="frame-FAMILY">
		<rect x="491" y="430" width="82" height="25" fill="#fdb863" stroke="#fdb863" stroke-width="0"/>
		<rect x="491" y="455.0" width="82" height="43" fill="#fee0b6" stroke="#fee0b6" stroke-width="0"/>
		<rect x="491" y="430" width="82" height="68" fill="none" stroke="#e08214" stroke-width="2"/>
		<line x1="491" y1="455" x2="573" y2="455" stroke="#e08214" stroke-width="1"/>
	</g>
	<text x="509" y="447.7" fill="#000000" font-family="Verdana" font-size="12">FAMILY</text>
	<text x="496" y="472.8" fill="#000000" font-family="Verdana" font-size="12">family_num</text>
	<line x1="496" y1="475" x2="568" y2="475" stroke="#000000" stroke-width="1"/>
	<text x="496" y="489.8" fill="#000000" font-family="Verdana" font-size="12">name</text>
</g>
</svg>